<?xml version="1.0" encoding="utf-8"?>
<!-- Generator: Adobe Illustrator 18.1.1, SVG Export Plug-In . SVG Version: 6.00 Build 0)  -->
<!DOCTYPE svg PUBLIC "-//W3C//DTD SVG 1.1//EN" "http://www.w3.org/Graphics/SVG/1.1/DTD/svg11.dtd">
<svg version="1.1" id="Layer_1" xmlns="http://www.w3.org/2000/svg" xmlns:xlink="http://www.w3.org/1999/xlink" x="0px" y="0px"
	 viewBox="0 0 450 130.5" enable-background="new 0 0 450 130.5" xml:space="preserve">
<path fill="#A6CE39" d="M218.5,65.3c0-7.1,4.3-9.5,10.6-8.3v-8.4c-3.6-0.9-8.4-0.2-11.8,1.1c-1.6,0.6-3,1.5-4.2,2.8
	c-1.2,1.2-2.1,2.8-2.8,4.7c-0.7,1.9-1,4-1,6.5V108h9.3V65.3L218.5,65.3z M165.8,109.4v-7.8l0.3,0c6,0,10.6-2,13.9-5.8
	c3.2-3.9,4.8-9.4,4.8-16.6c0-7.2-1.6-12.8-4.8-16.8c-3.2-3.9-7.9-5.9-13.9-5.9l-0.3,0v-7.8c0.3,0,0.7,0,1,0c8.6,0,15.4,2.7,20.2,8
	c4.9,5.3,7.3,12.7,7.3,22.1c0,9.3-2.6,16.7-7.8,22.2C181.4,106.5,174.5,109.3,165.8,109.4L165.8,109.4z M251.9,91.8c0,5.3,2,8,6.2,8
	c1.7,0,3.2-0.2,4.5-0.6v8.4c-0.7,0.2-1.7,0.4-2.9,0.5c-1.2,0.2-2.4,0.3-3.8,0.3c-1.9,0-3.6-0.3-5.2-0.9c-1.6-0.6-3-1.5-4.2-2.8
	c-1.2-1.2-2.1-2.8-2.8-4.7c-0.7-1.9-1-4-1-6.5V22.1h9.3V91.8z M165.8,48.7v7.8c-5.8,0.1-10.4,2.1-13.8,6.1
	c-3.5,4.1-5.2,9.6-5.2,16.8c0,6.9,1.8,12.3,5.3,16.2c3.5,3.9,8,5.9,13.8,6v7.8h-0.3c-8.6,0-15.4-2.7-20.5-8.1
	c-5.1-5.4-7.7-12.6-7.7-21.6c0-9.8,2.7-17.3,8-22.8C150.4,51.6,157.3,48.9,165.8,48.7z"/>
<path fill="#8E84B7" d="M364.2,48.7c0.3,0,0.7,0,1,0c8.6,0,15.4,2.7,20.3,8c4.9,5.3,7.3,12.7,7.3,22.1c0,9.3-2.6,16.7-7.8,22.2
	c-5.2,5.5-12.1,8.3-20.7,8.4v-7.8l0.3,0c6,0,10.6-2,13.9-5.8c3.2-3.9,4.8-9.4,4.8-16.6c0-7.2-1.6-12.8-4.8-16.8
	c-3.2-3.9-7.9-5.9-13.9-5.9l-0.3,0V48.7L364.2,48.7z M448.6,50l-19.5,29.4l19.1,28.7h-10.8L426,89.2c-0.7-1.2-1.6-2.6-2.6-4.4h-0.2
	c-0.2,0.3-1.1,1.8-2.7,4.4L409,108h-10.7l19.8-28.4L399.1,50H410l11.2,19.8c0.8,1.5,1.6,3,2.4,4.6h0.2L438.3,50H448.6z M363.9,109.4
	c-8.6,0-15.4-2.7-20.5-8.1c-5.1-5.4-7.7-12.6-7.7-21.6c0-9.8,2.7-17.3,8-22.8c5.1-5.3,12-8,20.6-8.2v7.8c-5.8,0.1-10.4,2.1-13.8,6.1
	c-3.5,4.1-5.2,9.7-5.2,16.8c0,6.9,1.8,12.3,5.3,16.2c3.5,3.9,8,5.9,13.8,6v7.8H363.9L363.9,109.4z M314.3,81
	c0,5.7-1.6,10.4-4.8,14.2c-3.2,3.7-7.4,5.6-12.6,5.6c-5.2,0-9.4-1.9-12.6-5.8c-3.1-3.9-4.7-9.1-4.7-15.8c0-7.3,1.6-13.1,4.9-17.2
	c3.3-4.2,7.7-6.2,13.4-6.2c2.5,0,4.7,0.4,6.8,1.3v-8.3c-2.2-0.6-4.8-0.8-8-0.8c-7.8-0.1-14.5,2.9-19.3,8.7c-4.8,5.8-7.2,13.5-7.2,23
	c0,9,2.2,16,6.6,21.2c4.4,5.2,10.2,7.8,17.5,7.8c25.5,0,28.4-14.7,29.5-23.5V22.3c-4.7-0.6-8.2,1-9.3,5.3
	C314.3,45.9,314.3,62.7,314.3,81z"/>
<linearGradient id="SVGID_1_" gradientUnits="userSpaceOnUse" x1="71.1459" y1="47.95" x2="113.0557" y2="-60.0485">
	<stop  offset="0" style="stop-color:#A6CE39"/>
	<stop  offset="1" style="stop-color:#FFF200"/>
</linearGradient>
<path fill-rule="evenodd" clip-rule="evenodd" fill="url(#SVGID_1_)" d="M64.2,3C98.9,3,127,31.1,127,65.8
	c0,34.6-28.1,62.7-62.7,62.7c-34.6,0-62.7-28.1-62.7-62.7C1.5,31.1,29.6,3,64.2,3z"/>
<g display="none">
	<defs>
		<polygon id="SVGID_2_" points="122.8,51 122.8,52.8 122.6,54.6 122.4,56.3 122.1,58.1 121.7,59.8 121.1,61.5 120.5,63.2 
			119.8,64.9 119,66.5 118.2,68.1 117.2,69.7 116.2,71.2 115,72.7 113.8,74.2 112.5,75.6 111.1,76.9 109.7,78.3 108.2,79.5 
			106.7,80.7 105,81.8 103.4,82.9 101.6,83.9 99.8,84.9 97.9,85.7 96,86.5 94.1,87.3 92.1,87.9 90.1,88.5 88.1,89 86,89.4 84,89.8 
			81.9,90.1 79.8,90.3 77.6,90.4 75.5,90.4 73.4,90.4 71.3,90.3 69.1,90.1 67,89.8 65,89.4 62.9,89 60.9,88.5 58.9,87.9 56.9,87.3 
			55,86.5 53.1,85.7 51.2,84.9 49.4,83.9 47.7,82.9 46,81.8 44.4,80.7 42.8,79.5 41.3,78.3 39.8,76.9 38.5,75.6 37.2,74.2 36,72.7 
			34.9,71.2 33.8,69.7 32.9,68.1 32,66.5 31.2,64.9 30.5,63.2 29.9,61.5 29.4,59.8 28.9,58.1 28.6,56.3 28.4,54.6 28.2,52.8 
			28.2,51 28.2,49.3 28.4,47.5 28.6,45.8 28.9,44 29.4,42.3 29.9,40.6 30.5,38.9 31.2,37.2 32,35.6 32.9,34 33.8,32.4 34.9,30.8 
			36,29.4 37.2,27.9 38.5,26.5 39.8,25.1 41.3,23.8 42.8,22.6 44.4,21.4 46,20.3 47.7,19.2 49.4,18.2 51.2,17.2 53.1,16.4 55,15.6 
			56.9,14.8 58.9,14.2 60.9,13.6 62.9,13.1 65,12.7 67,12.3 69.1,12 71.3,11.8 73.4,11.7 75.5,11.7 77.6,11.7 79.8,11.8 81.9,12 
			84,12.3 86,12.7 88.1,13.1 90.1,13.6 92.1,14.2 94.1,14.8 96,15.6 97.9,16.4 99.8,17.2 101.6,18.2 103.4,19.2 105,20.3 
			106.7,21.4 108.2,22.6 109.7,23.8 111.1,25.1 112.5,26.5 113.8,27.9 115,29.4 116.2,30.8 117.2,32.4 118.2,34 119,35.6 
			119.8,37.2 120.5,38.9 121.1,40.6 121.7,42.3 122.1,44 122.4,45.8 122.6,47.5 122.8,49.3 		"/>
	</defs>
	<clipPath id="SVGID_3_" display="inline">
		<use xlink:href="#SVGID_2_"  overflow="visible"/>
	</clipPath>
	<g display="inline" clip-path="url(#SVGID_3_)">
		
			<image overflow="visible" width="81" height="68" xlink:href="B7CA3409.jpg"  transform="matrix(1.1684 0 0 1.1581 28.1861 11.665)">
		</image>
	</g>
</g>
<path fill-rule="evenodd" clip-rule="evenodd" fill="#FFFFFF" d="M26.9,29.8C33,29,38.8,29.8,45,30.7c4.8,18.7,8.7,37.5,12.1,56.2
	c4.8-18.4,11.5-38.3,14.3-56.4c4.9,0.2,11.7,0.4,16.7,2.2c7.2,15.5,12.4,34.6,12.9,51.9c4-15.3,7.4-35.5,6.1-49.1
	c1.7,0.3,6.5,2.3,8,3.7c2.8,19.6-2,45.7-10.9,61.6c-3.2,2.3-8.3,4.3-11.6,5.1c-1-17.5-4.6-38.4-11.7-55.7
	c-2.7,20.3-8,39.9-16.2,59.4c-12.1,2.4-18.2-4.2-21.2-10.8C35.6,75.2,32.4,52.3,26.9,29.8z"/>
<path display="none" fill="#8E84B7" d="M430.4,51.9h0.2c0.5,0,0.8,0,1,0.1c0.2,0.1,0.4,0.3,0.6,0.5c0.1,0.2,0.2,0.5,0.2,0.8
	c0,0.4-0.1,0.7-0.4,0.9c-0.2,0.2-0.6,0.4-1.1,0.5c0.2,0.1,0.3,0.2,0.4,0.3c0.2,0.2,0.4,0.4,0.6,0.7l0.9,1.4H432l-0.7-1.1
	c-0.2-0.3-0.4-0.5-0.5-0.7c-0.1-0.2-0.2-0.3-0.3-0.3c0,0-0.1,0-0.1-0.1v-0.7h0.1c0.3,0,0.6,0,0.7-0.1c0.2-0.1,0.3-0.2,0.4-0.3
	c0.1-0.1,0.1-0.3,0.1-0.5c0-0.2-0.1-0.4-0.3-0.6c-0.2-0.2-0.5-0.2-0.8-0.2h-0.3V51.9z M428.3,57.1v-5.2h2v0.6H429v1.7h1.4v0.7
	c-0.1,0-0.1-0.1-0.2-0.1c-0.1,0-0.2,0-0.4,0H429v2.3H428.3z"/>
<path display="none" fill="#8E84B7" d="M430.2,49.9c1.3,0,2.4,0.5,3.2,1.3l0,0c0.8,0.8,1.3,2,1.3,3.2c0,1.3-0.5,2.4-1.3,3.2l0,0
	c-0.8,0.8-2,1.3-3.2,1.3v-0.5c1.1,0,2.1-0.5,2.9-1.2c0.7-0.7,1.2-1.7,1.2-2.9c0-1.1-0.5-2.1-1.2-2.8v0l0,0c-0.7-0.7-1.7-1.2-2.9-1.2
	V49.9z M430.2,59.1c-1.3,0-2.4-0.5-3.2-1.3h0c-0.8-0.8-1.3-2-1.3-3.2c0-1.3,0.5-2.4,1.3-3.2h0c0.8-0.8,2-1.3,3.2-1.3v0.5
	c-1.1,0-2.1,0.5-2.9,1.2c-0.7,0.7-1.2,1.7-1.2,2.9c0,1.1,0.5,2.1,1.2,2.9c0.7,0.7,1.7,1.2,2.9,1.2V59.1z"/>
</svg>
