<?xml version="1.0" encoding="utf-8"?>
<!-- Generator: Adobe Illustrator 18.1.1, SVG Export Plug-In . SVG Version: 6.00 Build 0)  -->
<!DOCTYPE svg PUBLIC "-//W3C//DTD SVG 1.1//EN" "http://www.w3.org/Graphics/SVG/1.1/DTD/svg11.dtd">
<svg version="1.1" id="Layer_1" xmlns="http://www.w3.org/2000/svg" xmlns:xlink="http://www.w3.org/1999/xlink" x="0px" y="0px"
	 viewBox="0 0 117 116.6" enable-background="new 0 0 117 116.6" xml:space="preserve">
<path fill="#333333" d="M197.4,59.6c0-6.4,3.9-8.5,9.6-7.5v-7.6c-3.2-0.8-7.6-0.2-10.7,1c-1.5,0.5-2.7,1.4-3.8,2.5
	c-1.1,1.1-1.9,2.5-2.6,4.2c-0.6,1.7-0.9,3.6-0.9,5.9v40h8.4V59.6L197.4,59.6z M149.9,99.3v-7l0.3,0c5.4,0,9.6-1.8,12.5-5.3
	c2.9-3.5,4.4-8.5,4.4-14.9c0-6.5-1.4-11.6-4.4-15.1c-2.9-3.5-7.1-5.3-12.5-5.3l-0.3,0v-7c0.3,0,0.6,0,0.9,0c7.8,0,13.9,2.4,18.2,7.2
	c4.4,4.8,6.6,11.4,6.6,19.9c0,8.3-2.4,15-7.1,20C163.9,96.8,157.7,99.3,149.9,99.3L149.9,99.3z M227.5,83.5c0,4.8,1.8,7.2,5.6,7.2
	c1.5,0,2.8-0.2,4-0.6v7.6c-0.6,0.2-1.5,0.3-2.6,0.5c-1.1,0.2-2.2,0.2-3.4,0.2c-1.7,0-3.2-0.3-4.7-0.8c-1.5-0.6-2.7-1.4-3.8-2.5
	c-1.1-1.1-1.9-2.5-2.6-4.2c-0.6-1.7-0.9-3.6-0.9-5.9V20.8h8.4V83.5z M149.9,44.7v7c-5.2,0.1-9.4,1.9-12.4,5.5
	c-3.1,3.7-4.7,8.7-4.7,15.1c0,6.2,1.6,11.1,4.8,14.6c3.1,3.5,7.2,5.3,12.4,5.4v7h-0.3c-7.7,0-13.9-2.4-18.5-7.3
	c-4.6-4.9-6.9-11.4-6.9-19.4c0-8.8,2.4-15.6,7.2-20.6C136,47.3,142.2,44.8,149.9,44.7z"/>
<path fill="#333333" d="M328.6,44.7c0.3,0,0.6,0,0.9,0c7.8,0,13.9,2.4,18.2,7.2c4.4,4.8,6.5,11.4,6.5,19.9c0,8.3-2.4,15-7.1,20
	c-4.7,5-10.9,7.5-18.7,7.5v-7l0.3,0c5.4,0,9.6-1.8,12.5-5.3c2.9-3.5,4.4-8.5,4.4-14.9c0-6.5-1.4-11.6-4.4-15.1
	c-2.9-3.5-7.1-5.3-12.5-5.3l-0.3,0V44.7L328.6,44.7z M404.6,45.9l-17.6,26.4l17.2,25.8h-9.7l-10.3-16.9c-0.6-1-1.4-2.4-2.3-4h-0.2
	c-0.2,0.3-1,1.6-2.4,4l-10.5,16.9h-9.7l17.8-25.6l-17.1-26.6h9.8l10.1,17.9c0.8,1.3,1.5,2.7,2.2,4.1h0.2l13.1-22H404.6z M328.3,99.3
	c-7.7,0-13.9-2.4-18.5-7.3c-4.6-4.9-6.9-11.4-6.9-19.4c0-8.8,2.4-15.6,7.2-20.6c4.6-4.7,10.8-7.2,18.5-7.4v7
	c-5.2,0.1-9.4,1.9-12.4,5.5c-3.1,3.7-4.7,8.7-4.7,15.1c0,6.2,1.6,11.1,4.8,14.6c3.1,3.5,7.2,5.3,12.4,5.4v7H328.3L328.3,99.3z
	 M283.6,73.8c0,5.1-1.4,9.4-4.4,12.8c-2.9,3.4-6.7,5-11.4,5c-4.7,0-8.5-1.7-11.3-5.2c-2.8-3.5-4.2-8.2-4.2-14.3
	c0-6.6,1.5-11.8,4.4-15.5c2.9-3.7,6.9-5.6,12.1-5.6c2.2,0,4.3,0.4,6.1,1.2v-7.5c-2-0.5-4.3-0.7-7.2-0.7c-7.1-0.1-13.1,2.6-17.4,7.8
	c-4.4,5.2-6.5,12.1-6.5,20.8c0,8.1,2,14.4,5.9,19.1c3.9,4.7,9.2,7,15.7,7c23,0,25.6-13.3,26.6-21.2V20.9c-4.3-0.5-7.4,0.9-8.4,4.8
	C283.6,42.1,283.6,57.3,283.6,73.8z"/>
<g display="none">
	<defs>
		<polygon id="SVGID_1_" points="105.7,46.9 105.7,48.6 105.5,50.4 105.3,52.1 104.9,53.9 104.5,55.6 104,57.4 103.4,59 102.7,60.7 
			101.9,62.4 101,64 100.1,65.5 99,67.1 97.9,68.6 96.7,70 95.4,71.4 94,72.8 92.6,74.1 91.1,75.3 89.5,76.6 87.9,77.7 86.2,78.8 
			84.4,79.7 82.6,80.7 80.8,81.6 78.9,82.4 77,83.1 75,83.8 73,84.4 71,84.9 68.9,85.3 66.8,85.6 64.7,85.9 62.6,86.1 60.5,86.3 
			58.3,86.3 56.3,86.3 54.1,86.1 52,85.9 49.9,85.6 47.8,85.3 45.8,84.9 43.8,84.4 41.7,83.8 39.8,83.1 37.8,82.4 35.9,81.6 
			34.1,80.7 32.3,79.7 30.5,78.8 28.9,77.7 27.2,76.6 25.6,75.3 24.1,74.1 22.7,72.8 21.4,71.4 20.1,70 18.9,68.6 17.7,67.1 
			16.7,65.5 15.7,64 14.8,62.4 14,60.7 13.3,59 12.8,57.4 12.2,55.6 11.8,53.9 11.5,52.1 11.2,50.4 11.1,48.6 11,46.9 11.1,45.1 
			11.2,43.4 11.5,41.6 11.8,39.9 12.2,38.1 12.8,36.4 13.3,34.7 14,33.1 14.8,31.4 15.7,29.8 16.7,28.2 17.7,26.7 18.9,25.2 
			20.1,23.7 21.4,22.3 22.7,21 24.1,19.7 25.6,18.4 27.2,17.2 28.9,16.1 30.5,15 32.3,14 34.1,13.1 35.9,12.2 37.8,11.4 39.8,10.7 
			41.7,10 43.8,9.4 45.8,8.9 47.8,8.5 49.9,8.1 52,7.9 54.1,7.7 56.3,7.5 58.3,7.5 60.5,7.5 62.6,7.7 64.7,7.9 66.8,8.1 68.9,8.5 
			71,8.9 73,9.4 75,10 77,10.7 78.9,11.4 80.8,12.2 82.6,13.1 84.4,14 86.2,15 87.9,16.1 89.5,17.2 91.1,18.4 92.6,19.7 94,21 
			95.4,22.3 96.7,23.7 97.9,25.2 99,26.7 100.1,28.2 101,29.8 101.9,31.4 102.7,33.1 103.4,34.7 104,36.4 104.5,38.1 104.9,39.9 
			105.3,41.6 105.5,43.4 105.7,45.1 		"/>
	</defs>
	<clipPath id="SVGID_2_" display="inline">
		<use xlink:href="#SVGID_1_"  overflow="visible"/>
	</clipPath>
	<g transform="matrix(1 0 0 1 0 -4.768372e-007)" display="inline" clip-path="url(#SVGID_2_)">
		
			<image overflow="visible" width="81" height="68" xlink:href="19FD8484.jpg"  transform="matrix(1.1684 0 0 1.1581 11.0479 7.507)">
		</image>
	</g>
</g>
<path fill-rule="evenodd" clip-rule="evenodd" fill="#333333" d="M58.4,1.6C27.2,1.6,1.9,26.9,1.9,58.1c0,31.2,25.3,56.5,56.5,56.5
	c31.2,0,56.5-25.3,56.5-56.5C114.9,26.9,89.6,1.6,58.4,1.6z M94.4,91.1C91.5,93.2,87,95,84,95.7c-0.9-15.8-4.2-34.6-10.5-50.1
	C71.1,63.8,66.3,81.4,58.9,99c-10.9,2.2-16.4-3.8-19.1-9.7c-7.2-21.2-10.1-41.9-15.1-62.1c5.5-0.7,10.7,0.1,16.3,0.8
	c4.3,16.9,7.8,33.7,10.9,50.6c4.3-16.6,10.4-34.5,12.9-50.8c4.4,0.2,10.5,0.3,15.1,1.9c6.5,14,11.2,31.2,11.7,46.8
	c3.6-13.8,6.7-32,5.5-44.2c1.5,0.2,5.9,2,7.2,3.3C106.8,53.3,102.4,76.8,94.4,91.1z"/>
<path display="none" fill="#8E84B7" d="M413.2,47.8h0.2c0.5,0,0.8,0,1,0.1c0.2,0.1,0.4,0.3,0.6,0.5c0.1,0.2,0.2,0.5,0.2,0.8
	c0,0.4-0.1,0.7-0.4,0.9c-0.2,0.2-0.6,0.4-1.1,0.5c0.2,0.1,0.3,0.2,0.4,0.3c0.2,0.2,0.4,0.4,0.6,0.7l0.9,1.4h-0.9l-0.7-1.1
	c-0.2-0.3-0.4-0.5-0.5-0.7c-0.1-0.2-0.2-0.3-0.3-0.3c0,0-0.1,0-0.1-0.1V50h0.1c0.3,0,0.6,0,0.7-0.1c0.2-0.1,0.3-0.2,0.4-0.3
	c0.1-0.1,0.1-0.3,0.1-0.5c0-0.2-0.1-0.4-0.3-0.6c-0.2-0.2-0.5-0.2-0.8-0.2h-0.3V47.8z M411.2,52.9v-5.2h2v0.6h-1.4V50h1.4v0.7
	c-0.1,0-0.1-0.1-0.2-0.1c-0.1,0-0.2,0-0.4,0h-0.8v2.3H411.2z"/>
<path display="none" fill="#8E84B7" d="M413.1,45.8c1.3,0,2.4,0.5,3.2,1.3l0,0c0.8,0.8,1.3,2,1.3,3.2c0,1.3-0.5,2.4-1.3,3.2l0,0
	c-0.8,0.8-2,1.3-3.2,1.3v-0.5c1.1,0,2.1-0.5,2.9-1.2c0.7-0.7,1.2-1.7,1.2-2.9c0-1.1-0.5-2.1-1.2-2.8v0l0,0c-0.7-0.7-1.7-1.2-2.9-1.2
	V45.8z M413.1,54.9c-1.3,0-2.4-0.5-3.2-1.3h0c-0.8-0.8-1.3-2-1.3-3.2c0-1.3,0.5-2.4,1.3-3.2h0c0.8-0.8,2-1.3,3.2-1.3v0.5
	c-1.1,0-2.1,0.5-2.9,1.2c-0.7,0.7-1.2,1.7-1.2,2.9c0,1.1,0.5,2.1,1.2,2.9c0.7,0.7,1.7,1.2,2.9,1.2V54.9z"/>
</svg>
